<?xml version="1.0" standalone="no"?>
<!DOCTYPE svg PUBLIC "-//W3C//DTD SVG 20010904//EN"
 "http://www.w3.org/TR/2001/REC-SVG-20010904/DTD/svg10.dtd">
<svg version="1.0" xmlns="http://www.w3.org/2000/svg"
 width="360.000000pt" height="360.000000pt" viewBox="0 0 360.000000 360.000000"
 preserveAspectRatio="xMidYMid meet">

<g transform="translate(0.000000,360.000000) scale(0.100000,-0.100000)"
fill="#000000" stroke="none">
<path d="M1600 3079 c-191 -30 -384 -110 -550 -229 -247 -176 -422 -430 -503
-730 -50 -182 -50 -458 0 -640 114 -419 402 -738 808 -893 142 -55 361 -92
482 -82 147 13 186 18 261 36 289 67 557 242 737 483 190 253 283 578 254 884
-40 434 -277 802 -655 1017 -131 75 -294 132 -441 154 -83 13 -313 13 -393 0z
m417 -115 c117 -21 204 -49 308 -101 294 -146 522 -414 610 -718 85 -295 66
-575 -60 -849 -143 -313 -440 -560 -775 -644 -414 -104 -833 9 -1135 307 -227
225 -348 516 -348 841 0 334 130 634 371 862 279 262 647 370 1029 302z"/>
<path d="M1530 2223 c-14 -3 -57 -20 -97 -38 -94 -44 -164 -114 -212 -214 -35
-73 -36 -80 -36 -186 0 -106 2 -114 34 -180 69 -139 192 -232 341 -256 176
-29 358 59 435 211 37 72 58 181 50 253 l-7 57 -209 0 -209 0 0 -85 0 -85 120
0 c134 0 135 -1 101 -68 -24 -47 -45 -66 -101 -91 -60 -27 -169 -28 -227 -1
-92 41 -156 140 -156 240 -1 82 18 132 69 189 88 98 238 120 337 49 l29 -21
59 59 c32 32 59 61 59 64 0 14 -104 73 -159 91 -59 18 -158 23 -221 12z"/>
<path d="M2311 1943 l2 -76 -76 2 -77 2 0 -61 0 -61 77 2 78 2 -4 -76 -3 -77
61 0 61 0 0 78 0 77 75 -3 75 -4 0 61 0 61 -77 0 -78 0 3 75 4 75 -62 0 -61 0
2 -77z"/>
</g>
</svg>
